<svg id="CakePoint" xmlns="http://www.w3.org/2000/svg" viewBox="0 0 1000 1000"><defs><style>.cls-1{fill:#de2021;}.cls-2{fill:#65231a;}.cls-3{fill:#fff;}</style></defs><rect class="cls-1" width="1000" height="1000"/><polygon class="cls-2" points="70.94 432.85 518.68 69.02 974.93 430.85 974.93 565.29 586.17 252.73 586.17 909.71 522.94 979.65 449.8 909.44 449.8 262.63 70.94 566.89 70.94 432.85"/><polygon class="cls-3" points="52.19 409.41 499.93 45.58 956.18 407.41 956.18 541.86 567.42 229.29 567.42 886.27 504.19 956.22 431.05 886 431.05 239.19 52.19 543.45 52.19 409.41"/><path class="cls-2" d="M332.58,548.47h83V370.55H343.28L128.26,589a48.81,48.81,0,0,0-11.07,16.89c-3.15,8.3-4.8,19.57,1.4,31.27a38.8,38.8,0,0,0,9.07,11.13L385.24,870.81s22.87,17.35,29.25-11l-.06-205.45H329.7l-.13,65.12L216.32,601.63,332.18,490.89Z"/><path class="cls-3" d="M313.83,526.83h83V348.9H324.53l-215,218.43a48.85,48.85,0,0,0-11.07,16.9c-3.19,8.39-4.83,19.82,1.6,31.66a38.69,38.69,0,0,0,8.81,10.68L365.1,848a27.1,27.1,0,0,0,4.4,3.11c5.54,3.08,17.35,7.6,23.67-5.27a26.44,26.44,0,0,0,2.57-11.68l-.06-201.38H311l-.13,65.12L197.57,580,313.43,469.25Z"/><path class="cls-2" d="M880.55,553.05c-.07-1.07-.11-2.11-.17-3.16C877.94,510,819,473.44,819,473.44L623.53,355.75l6.39,537.77,85-81V746.7l139-129.25A82.81,82.81,0,0,0,880.55,553.05Zm-174,63.2V522.11l54.78,41.75Z"/><path class="cls-3" d="M861.8,529.61c-.07-1.06-.11-2.11-.17-3.16C859.19,486.53,800.27,450,800.27,450L604.78,332.31l6.39,537.77,85-81V723.27L835.17,594A82.83,82.83,0,0,0,861.8,529.61Zm-174,63.2V498.67l54.78,41.75Z"/></svg>